<svg width="80" height="80" viewBox="0 0 80 80" fill="none" xmlns="http://www.w3.org/2000/svg">
<path fill-rule="evenodd" clip-rule="evenodd" d="M3.33301 39.9987C3.33301 60.332 19.6663 76.6654 39.9997 76.6654C60.333 76.6654 76.6663 60.332 76.6663 39.9987C76.6663 19.6654 60.333 3.33203 39.9997 3.33203C19.6663 3.33203 3.33301 19.6654 3.33301 39.9987ZM9.99967 39.9987C9.99967 23.332 23.333 9.9987 39.9997 9.9987C56.6663 9.9987 69.9997 23.332 69.9997 39.9987C69.9997 56.6654 56.6663 69.9987 39.9997 69.9987C23.333 69.9987 9.99967 56.6654 9.99967 39.9987ZM43.333 39.9987V26.6654C43.333 24.6654 41.9997 23.332 39.9997 23.332C37.9997 23.332 36.6663 24.6654 36.6663 26.6654V39.9987C36.6663 41.9987 37.9997 43.332 39.9997 43.332C41.9997 43.332 43.333 41.9987 43.333 39.9987ZM42.9997 54.6654C42.9997 54.9987 42.6663 55.332 42.333 55.6654C41.6663 56.332 40.9997 56.6654 39.6663 56.6654C38.6663 56.6654 37.9997 56.332 37.333 55.6654C36.6663 54.9987 36.333 54.332 36.333 53.332C36.333 52.9415 36.4474 52.6654 36.5421 52.4366C36.6091 52.2748 36.6663 52.1368 36.6663 51.9987C36.6663 51.6654 36.9997 51.332 37.333 50.9987C38.333 49.9987 39.6663 49.6654 40.9997 50.332C41.1663 50.332 41.2497 50.4154 41.333 50.4987C41.4163 50.582 41.4997 50.6654 41.6663 50.6654C41.9997 50.6654 42.333 50.9987 42.333 50.9987C42.4997 51.1654 42.583 51.332 42.6663 51.4987C42.7497 51.6654 42.833 51.832 42.9997 51.9987C43.333 52.332 43.333 52.9987 43.333 53.332C43.333 53.4987 43.2497 53.7487 43.1663 53.9987C43.083 54.2487 42.9997 54.4987 42.9997 54.6654Z" fill="black"/>
<mask id="mask0_6108_87568" style="mask-type:alpha" maskUnits="userSpaceOnUse" x="3" y="3" width="74" height="74">
<path fill-rule="evenodd" clip-rule="evenodd" d="M3.33301 39.9987C3.33301 60.332 19.6663 76.6654 39.9997 76.6654C60.333 76.6654 76.6663 60.332 76.6663 39.9987C76.6663 19.6654 60.333 3.33203 39.9997 3.33203C19.6663 3.33203 3.33301 19.6654 3.33301 39.9987ZM9.99967 39.9987C9.99967 23.332 23.333 9.9987 39.9997 9.9987C56.6663 9.9987 69.9997 23.332 69.9997 39.9987C69.9997 56.6654 56.6663 69.9987 39.9997 69.9987C23.333 69.9987 9.99967 56.6654 9.99967 39.9987ZM43.333 39.9987V26.6654C43.333 24.6654 41.9997 23.332 39.9997 23.332C37.9997 23.332 36.6663 24.6654 36.6663 26.6654V39.9987C36.6663 41.9987 37.9997 43.332 39.9997 43.332C41.9997 43.332 43.333 41.9987 43.333 39.9987ZM42.9997 54.6654C42.9997 54.9987 42.6663 55.332 42.333 55.6654C41.6663 56.332 40.9997 56.6654 39.6663 56.6654C38.6663 56.6654 37.9997 56.332 37.333 55.6654C36.6663 54.9987 36.333 54.332 36.333 53.332C36.333 52.9415 36.4474 52.6654 36.5421 52.4366C36.6091 52.2748 36.6663 52.1368 36.6663 51.9987C36.6663 51.6654 36.9997 51.332 37.333 50.9987C38.333 49.9987 39.6663 49.6654 40.9997 50.332C41.1663 50.332 41.2497 50.4154 41.333 50.4987C41.4163 50.582 41.4997 50.6654 41.6663 50.6654C41.9997 50.6654 42.333 50.9987 42.333 50.9987C42.4997 51.1654 42.583 51.332 42.6663 51.4987C42.7497 51.6654 42.833 51.832 42.9997 51.9987C43.333 52.332 43.333 52.9987 43.333 53.332C43.333 53.4987 43.2497 53.7487 43.1663 53.9987C43.083 54.2487 42.9997 54.4987 42.9997 54.6654Z" fill="white"/>
</mask>
<g mask="url(#mask0_6108_87568)">
<rect width="80" height="80" fill="#FFB300"/>
</g>
</svg>
