<svg width="21" height="20" viewBox="0 0 21 20" fill="none" xmlns="http://www.w3.org/2000/svg">
<g clip-path="url(#clip0_5297_92642)">
<path d="M19.5901 7.17009L10.5901 0.630097C10.4188 0.504948 10.2122 0.4375 10.0001 0.4375C9.78797 0.4375 9.58135 0.504948 9.41009 0.630097L0.410092 7.17009C0.239424 7.29478 0.11265 7.47034 0.0479715 7.67156C-0.0167072 7.87278 -0.0159649 8.08932 0.050092 8.29009L3.49009 18.8701C3.5579 19.0789 3.69256 19.2597 3.87329 19.3844C4.05402 19.5091 4.27077 19.5708 4.49009 19.5601H15.5601C15.7794 19.5708 15.9961 19.5091 16.1769 19.3844C16.3576 19.2597 16.4923 19.0789 16.5601 18.8701L20.0001 8.29009C20.0611 8.08413 20.0542 7.864 19.9803 7.66228C19.9065 7.46056 19.7696 7.28798 19.5901 7.17009ZM14.8401 17.5601H5.16009L2.16009 8.36009L10.0001 2.6801L17.8201 8.36009L14.8401 17.5601Z" fill="#B0BEC5"/>
</g>
<defs>
<clipPath id="clip0_5297_92642">
<rect width="21" height="20" fill="white"/>
</clipPath>
</defs>
</svg>
