<svg width="80" height="80" viewBox="0 0 80 80" fill="none" xmlns="http://www.w3.org/2000/svg">
<path fill-rule="evenodd" clip-rule="evenodd" d="M6.66797 40.0013C6.66797 21.568 21.568 6.66797 40.0013 6.66797C58.4346 6.66797 73.3346 21.568 73.3346 40.0013C73.3346 58.4346 58.4346 73.3346 40.0013 73.3346C21.568 73.3346 6.66797 58.4346 6.66797 40.0013ZM49.6346 54.3346C50.9346 55.6346 53.0346 55.6346 54.3346 54.3346C55.6013 53.0346 55.6013 50.9013 54.3346 49.6346L44.7013 40.0013L54.3346 30.368C55.6346 29.068 55.6346 26.968 54.3346 25.668C53.0346 24.368 50.9346 24.368 49.6346 25.668L40.0013 35.3013L30.368 25.668C29.068 24.368 26.968 24.368 25.668 25.668C25.0438 26.2907 24.693 27.1362 24.693 28.018C24.693 28.8997 25.0438 29.7452 25.668 30.368L35.3013 40.0013L25.668 49.6346C25.0438 50.2574 24.693 51.1029 24.693 51.9846C24.693 52.8664 25.0438 53.7119 25.668 54.3346C26.968 55.6346 29.068 55.6346 30.368 54.3346L40.0013 44.7013L49.6346 54.3346Z" fill="#FFB300"/>
</svg>
